<?xml version="1.0" encoding="utf-8"?>
<!-- Generator: Adobe Illustrator 21.0.0, SVG Export Plug-In . SVG Version: 6.00 Build 0)  -->
<svg version="1.1" id="Layer_1" xmlns="http://www.w3.org/2000/svg" xmlns:xlink="http://www.w3.org/1999/xlink" x="0px" y="0px"
	 viewBox="0 0 841.9 215" style="enable-background:new 0 0 841.9 215;" xml:space="preserve">
<style type="text/css">
	.st0{fill:#FFFFFF;}
</style>
<g id="Logo_4_">
	<g>
		<g>
			<path class="st0" d="M810.7,7.7c-8.9,0-16.1,7.2-16.1,16.1v137.6c0,8.9,7.2,16.1,16.1,16.1s16.1-7.2,16.1-16.1V23.8
				C826.8,14.9,819.6,7.7,810.7,7.7z"/>
			<path class="st0" d="M773.8,177.4H773c0.1,0,0.3,0,0.4,0S773.7,177.4,773.8,177.4z"/>
			<g>
				<path class="st0" d="M757.4,50.1c-10.6-6.7-23.1-10.5-36.6-10.5c-21.2,0-40.2,9.6-52.9,24.8c-12.6-15-31.6-24.6-52.7-24.6
					c-38,0-68.8,30.8-68.8,68.8l0,0v85c0,8.9,7.2,16.1,16.1,16.1s16.1-7.2,16.1-16.1v-26.8c10.6,6.7,23.2,10.6,36.7,10.6
					c21.2,0,40.1-9.6,52.7-24.6c12.6,15.1,31.6,24.7,52.8,24.7c13.5,0,26.1-3.9,36.7-10.6c0,0,0.4-0.3,0.7-0.7l0,0
					c2,6.4,7.9,11.1,14.9,11.3h0.8c8.7-0.2,15.7-7.3,15.7-16v-57C788.2,81.5,775.7,61.6,757.4,50.1z M615.2,145.2
					c-20.3,0-36.7-16.4-36.7-36.7s16.4-36.7,36.7-36.7c20,0,36.3,16.1,36.7,36c0,0.3,0,0.5,0,0.8c0,0.2,0,0.3,0,0.5
					C651.6,129.1,635.3,145.2,615.2,145.2z M752.9,126.2L752.9,126.2c-6.3,11.3-18.3,18.9-32.1,18.9c-20.3,0-36.7-16.4-36.7-36.7
					c0-6.3,1.6-12.3,4.4-17.4c6.2-11.3,18.3-19,32.2-19c20.3,0,36.7,16.4,36.7,36.7C757.4,115,755.8,121,752.9,126.2z"/>
			</g>
		</g>
		<path class="st0" d="M507.7,72c16.4,0,30.3,10.8,35,25.7c2.1-13.2,7.3-25.8,15.8-35.4c-12.6-14.2-30.3-22.4-50.8-22.4
			c-13.5,0-26.1,3.9-36.7,10.6V23.8c0-8.9-7.2-16.1-16.1-16.1s-16.1,7.2-16.1,16.1v84.9h-0.2c0,20.3-16.4,36.7-36.7,36.7
			c-6.6,0-12.8-1.8-18.2-4.8l24.5-42.8L434,53.5c0,0,0-0.1,0.1-0.1c0.5-0.7,0.7-1.6,0.7-2.5c0-1.7-0.9-3.1-2.2-3.9
			c-0.3-0.1-0.5-0.3-0.8-0.4c-9-4.3-19-6.7-29.7-6.7c-38,0-68.8,30.8-68.8,68.8l0,0c0,20.3-16.4,36.7-36.7,36.7
			c-6.6,0-12.9-1.8-18.2-4.9L303,97.7l25.6-44.2c0,0,0-0.1,0.1-0.1c0.5-0.7,0.7-1.6,0.7-2.5c0-1.7-0.9-3.1-2.2-3.9
			c-0.3-0.1-0.5-0.3-0.8-0.4c-9-4.3-19-6.7-29.7-6.7c-38,0-68.8,30.8-68.8,68.8c0,20.3-16.4,36.7-36.7,36.7s-36.7-16.4-36.7-36.7
			c0,0,0,0,0-0.1c0-8.9-7.2-16.1-16.1-16.1c-8.9,0-16.1,7.2-16.1,16.1l0,0l0,0c0,20.3-16.4,36.7-36.7,36.7s-36.7-16.4-36.7-36.7
			c0-0.1,0-0.2,0-0.3V55.9c0-8.9-7.2-16-16-16.1l0,0l0,0c-8.9,0-16,7.2-16,16.1v52.7l0,0l0,0c0,38,30.8,68.8,68.8,68.8
			c21.2,0,40.1-9.6,52.7-24.6c12.6,15.1,31.6,24.6,52.7,24.6c21.2,0,40.1-9.6,52.8-24.7c12.6,15.1,31.6,24.6,52.7,24.6
			c21.2,0,40.1-9.6,52.7-24.6c12.6,15.1,31.6,24.6,52.7,24.6c21.2,0,40.2-9.6,52.8-24.7c12.6,15.1,31.6,24.7,52.8,24.7
			c12.4,0,24.1-3.3,34.2-9.1V122c-5.3,13.7-18.6,23.3-34.2,23.3c-20.3,0-36.7-16.4-36.7-36.7C471,88.4,487.5,72,507.7,72z
			 M259.9,108.6c0-20.3,16.4-36.7,36.7-36.7c1.7,0,3.4,0.1,5.1,0.4l-10.5,18.1c-0.1,0.1-0.2,0.2-0.2,0.4l-23.2,40.5
			C262.8,125.1,259.9,117.2,259.9,108.6z M365.4,108.6c0-20.3,16.4-36.7,36.7-36.7c1.7,0,3.4,0.1,5.1,0.4l-10.5,18.1
			c-0.1,0.1-0.2,0.2-0.2,0.4l-23.2,40.5C368.3,125.1,365.4,117.2,365.4,108.6z"/>
	</g>
</g>
</svg>
